<svg width="258" height="119" viewBox="0 0 258 119" fill="none" xmlns="http://www.w3.org/2000/svg">
<path d="M19.144 93.576C15.304 93.576 11.752 92.744 8.488 91.08C5.224 89.416 2.568 87.048 0.52 83.976L4.744 79.176C8.456 84.68 13.288 87.432 19.24 87.432C27.56 87.432 31.72 82.504 31.72 72.648V31.944H7.144V25.8H38.728V72.36C38.728 79.4 37.064 84.712 33.736 88.296C30.472 91.816 25.608 93.576 19.144 93.576ZM104.102 42.504V93H97.5737V83.784C95.7818 86.856 93.3178 89.256 90.1818 90.984C87.0458 92.648 83.4618 93.48 79.4298 93.48C72.8378 93.48 67.6218 91.656 63.7818 88.008C60.0058 84.296 58.1178 78.888 58.1178 71.784V42.504H64.9338V71.112C64.9338 76.424 66.2458 80.456 68.8698 83.208C71.4938 85.96 75.2378 87.336 80.1018 87.336C85.4138 87.336 89.6058 85.736 92.6778 82.536C95.7498 79.272 97.2858 74.76 97.2858 69V42.504H104.102ZM124.632 25.8H131.736V86.856H169.368V93H124.632V25.8ZM201.323 87.432C204.459 87.432 207.339 86.888 209.963 85.8C212.651 84.648 214.923 82.984 216.779 80.808L220.619 85.224C218.379 87.912 215.595 89.96 212.267 91.368C208.939 92.776 205.259 93.48 201.227 93.48C196.043 93.48 191.435 92.392 187.403 90.216C183.371 87.976 180.235 84.904 177.995 81C175.755 77.096 174.635 72.68 174.635 67.752C174.635 62.824 175.691 58.408 177.803 54.504C179.979 50.6 182.955 47.56 186.731 45.384C190.507 43.208 194.795 42.12 199.595 42.12C204.075 42.12 208.107 43.144 211.691 45.192C215.339 47.24 218.219 50.088 220.331 53.736C222.507 57.384 223.659 61.544 223.787 66.216L182.315 74.28C183.595 78.376 185.899 81.608 189.227 83.976C192.619 86.28 196.651 87.432 201.323 87.432ZM199.595 47.976C196.075 47.976 192.907 48.808 190.091 50.472C187.339 52.072 185.163 54.344 183.563 57.288C182.027 60.168 181.259 63.496 181.259 67.272C181.259 68.232 181.291 68.936 181.355 69.384L216.971 62.472C216.203 58.248 214.251 54.792 211.115 52.104C207.979 49.352 204.139 47.976 199.595 47.976Z" fill="white"/>
</svg>
