<?xml version="1.0" encoding="utf-8"?>
<!-- Generator: Adobe Illustrator 25.4.1, SVG Export Plug-In . SVG Version: 6.00 Build 0)  -->
<svg version="1.1" id="Layer_1" xmlns="http://www.w3.org/2000/svg" xmlns:xlink="http://www.w3.org/1999/xlink" x="0px" y="0px"
	 viewBox="0 0 258 119" style="enable-background:new 0 0 258 119;" xml:space="preserve">
<style type="text/css">
	.st0{fill:#1A76D2;}
</style>
<path class="st0" d="M19.1,93.6c-3.8,0-7.4-0.8-10.7-2.5s-5.9-4-8-7.1l4.2-4.8c3.7,5.5,8.5,8.3,14.5,8.3c8.3,0,12.5-4.9,12.5-14.8
	V31.9H7.1v-6.1h31.6v46.6c0,7-1.7,12.4-5,15.9C30.5,91.8,25.6,93.6,19.1,93.6z M104.1,42.5V93h-6.5v-9.2c-1.8,3.1-4.3,5.5-7.4,7.2
	s-6.7,2.5-10.8,2.5c-6.6,0-11.8-1.8-15.6-5.5c-3.8-3.7-5.7-9.1-5.7-16.2V42.5h6.8v28.6c0,5.3,1.3,9.3,3.9,12.1s6.4,4.1,11.2,4.1
	c5.3,0,9.5-1.6,12.6-4.8c3.1-3.3,4.6-7.8,4.6-13.5V42.5H104.1z M124.6,25.8h7.1v61.1h37.6V93h-44.7C124.6,93,124.6,25.8,124.6,25.8z
	 M201.3,87.4c3.1,0,6-0.5,8.6-1.6c2.7-1.2,5-2.8,6.8-5l3.8,4.4c-2.2,2.7-5,4.7-8.4,6.1c-3.3,1.4-7,2.1-11,2.1
	c-5.2,0-9.8-1.1-13.8-3.3c-4-2.2-7.2-5.3-9.4-9.2c-2.2-3.9-3.4-8.3-3.4-13.2s1.1-9.3,3.2-13.2c2.2-3.9,5.2-6.9,8.9-9.1
	c3.8-2.2,8.1-3.3,12.9-3.3c4.5,0,8.5,1,12.1,3.1c3.6,2,6.5,4.9,8.6,8.5c2.2,3.6,3.3,7.8,3.5,12.5l-41.5,8.1c1.3,4.1,3.6,7.3,6.9,9.7
	C192.6,86.3,196.7,87.4,201.3,87.4z M199.6,48c-3.5,0-6.7,0.8-9.5,2.5c-2.8,1.6-4.9,3.9-6.5,6.8c-1.5,2.9-2.3,6.2-2.3,10
	c0,1,0,1.7,0.1,2.1l35.6-6.9c-0.8-4.2-2.7-7.7-5.9-10.4C208,49.4,204.1,48,199.6,48z"/>
</svg>
